# xmcd
#
# Track frame offsets:
#	182
#	12857
#	28642
#	39742
#	58415
#	106297
#	135500
#	155310
#	168290
#	185417
#	196277
#	210992
#	228597
#	248317
#	262757
#	271462
#
# Disc length: 3968 seconds
#
# Revision: 9
# Processed by: cddbd v1.5.2PL0 Copyright (c) Steve Scherf et al.
# Submitted via: audiograbber 1.83.01
#
DISCID=cd0f7e10
DTITLE=Various Artist - The Blues Collection Disc 2
DYEAR=1995
DGENRE=Blues
TTITLE0=John Mayall (feat. Eric Clapton) - On Top Of The World
TTITLE1=Isaac Scott - Don't Let My Baby Ride
TTITLE2=John Lee Hooker - Good Rockin' Mama
TTITLE3=Fleetwood Mac - Red Hot Mama
TTITLE4=Jimi Hendrix - Red House
TTITLE5=Buddy Guy and Junior Wells - How Can One Woman Be So Mean
TTITLE6=Buster Benton - Leave Me Alone
TTITLE7=Muddy Waters - Hoochie Coochie Man
TTITLE8=Savoy Brown - Cold Blooded Woman
TTITLE9=John Lee Hooker - No Shoes
TTITLE10=Big Walter "Shakey" Horton - Easy
TTITLE11=Muddy Waters - Walking Blues
TTITLE12=Fenton Robinson - Somebody Loan Me A Dime
TTITLE13=Billy Boy Arnold with Tony McPhee - I Wish You Would
TTITLE14=Earl Hooker - The Foxtrot
TTITLE15=Todd Sharpeville - Can't Hold Out
EXTD=YEAR: 1995
EXTT0=John Mayall and Eric Clapton
EXTT1=Isaac Scott
EXTT2=John Lee Hooker
EXTT3=Fleetwood Mac
EXTT4=Jimi Hendrix
EXTT5=Buddy Guy and Junior Wells
EXTT6=Buster Benton
EXTT7=Muddy Waters
EXTT8=Savoy Brown
EXTT9=John Lee Hooker
EXTT10=Big Walter Shakey Horton
EXTT11=Muddy Waters
EXTT12=Fenton Robinson
EXTT13=Billy Boy Arnold and Tony McPhee
EXTT14=Earl Hooker
EXTT15=
PLAYORDER=
